<mxfile host="app.diagrams.net" modified="2023-09-18T01:20:15.231Z" agent="Mozilla/5.0 (Windows NT 10.0; Win64; x64) AppleWebKit/537.36 (KHTML, like Gecko) Chrome/116.0.0.0 Safari/537.36" version="21.7.5" etag="lSxrXKRS1xH0r5AKF9Se" type="github">
  <diagram name="PÃ¡gina-1" id="SUKwgMM1J9MVwqQ_uYYk">
    <mxGraphModel>
      <root>
        <mxCell id="0" />
        <mxCell id="1" parent="0" />
      </root>
    </mxGraphModel>
  </diagram>
</mxfile>
